<?xml version="1.0" encoding="UTF-8"?><svg xmlns="http://www.w3.org/2000/svg" xmlns:xlink="http://www.w3.org/1999/xlink" width="48" height="48"><defs><linearGradient id="e"><stop offset="0" stop-color="#fff"/><stop offset="1" stop-color="#fff" stop-opacity="0"/></linearGradient><linearGradient id="g"><stop offset="0" stop-color="#fef088"/><stop offset=".5" stop-color="#fde63a"/><stop offset="1" stop-color="#dac203"/></linearGradient><linearGradient id="d"><stop offset="0" stop-color="#dac203"/><stop offset=".5" stop-color="#fdec69"/><stop offset="1" stop-color="#fdef7e"/></linearGradient><linearGradient id="f"><stop offset="0"/><stop offset="1" stop-opacity="0"/></linearGradient><linearGradient id="c"><stop offset="0" stop-color="#b30000"/><stop offset=".5" stop-color="#ff5c5c"/><stop offset="1" stop-color="#c30000"/></linearGradient><linearGradient id="b"><stop offset="0" stop-color="#c17d10"/><stop offset="1" stop-color="#9b650c"/></linearGradient><linearGradient id="a"><stop offset="0" stop-color="#c4a000"/><stop offset="1" stop-color="#c4a000" stop-opacity="0"/></linearGradient><linearGradient xlink:href="#a" id="l" x1="9.105" x2="10.147" y1="38.828" y2="30.141" gradientTransform="matrix(.86603 -.5 .7975 1.3813 -15.7 -9.225)" gradientUnits="userSpaceOnUse"/><linearGradient xlink:href="#a" id="m" x1="19.616" x2="18.486" y1="39.253" y2="29.909" gradientTransform="matrix(.86603 -.5 .79796 1.38211 -15.73 -9.277)" gradientUnits="userSpaceOnUse"/><linearGradient xlink:href="#a" id="n" x1="15.097" x2="14.045" y1="36.968" y2="29" gradientTransform="matrix(.86603 -.5 .84348 1.46095 -19.74 -11.134)" gradientUnits="userSpaceOnUse"/><linearGradient xlink:href="#a" id="o" x1="14.045" x2="14.045" y1="37.576" y2="29" gradientTransform="matrix(.86603 -.5 .8013 1.3879 -12.818 -11.145)" gradientUnits="userSpaceOnUse"/><linearGradient xlink:href="#a" id="p" x1="16.929" x2="14.045" y1="34.011" y2="29" gradientTransform="matrix(.86603 -.5 .86149 1.49214 -17.88 -13.91)" gradientUnits="userSpaceOnUse"/><linearGradient xlink:href="#b" id="i" x1="12.233" x2="16.871" y1="12.363" y2="17.111" gradientTransform="matrix(.96593 .2621 -.25882 .97818 2.957 -5.94)" gradientUnits="userSpaceOnUse"/><linearGradient xlink:href="#c" id="r" x1="10.615" x2="2.007" y1="28.123" y2="27.235" gradientTransform="translate(-.82 -5.307)scale(1.1767)" gradientUnits="userSpaceOnUse"/><linearGradient xlink:href="#d" id="q" x1="11.997" x2="17.774" y1="19.592" y2="16.235" gradientTransform="matrix(1.0149 0 0 1.00592 -.332 -.14)" gradientUnits="userSpaceOnUse"/><linearGradient xlink:href="#e" id="j" x1="9.562" x2="14.767" y1="6.953" y2="14.2" gradientUnits="userSpaceOnUse"/><radialGradient xlink:href="#f" id="h" cx="22.571" cy="30.857" r="15.571" fx="22.571" fy="30.857" gradientTransform="matrix(1 0 0 .65138 0 10.758)" gradientUnits="userSpaceOnUse"/><radialGradient xlink:href="#g" id="k" cx="20.764" cy="19.541" r="14.8" fx="20.764" fy="19.541" gradientTransform="matrix(.4494 -.2165 .56442 1.17162 -1.432 2.546)" gradientUnits="userSpaceOnUse"/></defs><path fill="url(#h)" d="M38.143 30.857a15.571 10.143 0 1 1-31.143 0 15.571 10.143 0 1 1 31.143 0" color="#000" opacity=".474" style="marker:none" transform="matrix(1.43578 0 0 .8257 -5.05 13.432)"/><path fill="url(#i)" fill-rule="evenodd" stroke="#8f5902" stroke-linecap="round" stroke-width="1.006" d="M6.916 1.778c1.73-.878 4.126.004 5.012 1.557l4.17 9.485c.886 1.554.634 3.37-.566 4.07-1.2.702-2.878.016-3.764-1.538L5.85 6.996c-.886-1.554-.63-4.357 1.066-5.218z"/><path fill="none" stroke="url(#j)" stroke-linecap="round" stroke-width="1.006" d="M7.446 2.736c1.422-.786 2.821-.193 3.696 1.34l4.448 10.086-2.432 1.42-6.296-8.82c-.875-1.533-.877-3.219.584-4.026z" opacity=".423"/><path fill="url(#k)" fill-rule="evenodd" stroke="#c4a000" d="M14.78 22.794c-.795 4.286.635 13.952 6.26 19.694 4.347.14 13.99-3.418 20.531-10.197-9.236-4.517-15.536-15.723-20.435-13.283z"/><path fill="none" stroke="url(#l)" stroke-linecap="round" d="M16.338 24.367c2.35 6.27 2.49 12.789 7.184 17.92"/><path fill="none" stroke="#fff" d="M15.919 23.414c-.912.508-.16 12.52 5.584 18 7.386-.186 15.524-6.396 18.393-8.837-9.5-5.984-14.925-14.762-18.48-12.574z" opacity=".462"/><path fill="none" stroke="url(#m)" stroke-linecap="round" d="M23.848 22.273c.867-.749 5.75 6.088 14.999 12.382"/><path fill="none" stroke="url(#n)" stroke-linecap="round" d="M18.013 22.864c3.712 5.347 2.963 12.424 8.84 18.081"/><path fill="none" stroke="url(#o)" stroke-linecap="round" d="M22.984 22.776S31.16 35.847 34.166 37.88"/><path fill="none" stroke="url(#p)" stroke-linecap="round" d="M19.3 22.2c3.447 2.918 8.703 14.164 11.31 17.478"/><path fill="url(#q)" fill-rule="evenodd" stroke="#c4a000" stroke-linecap="round" stroke-linejoin="round" stroke-width="1.01" d="m8.509 18.062 11.462-6.559c.598 2.383-.342 3.24 1.796 7.148l-7.91 4.526c-1.454-3.477-3.566-3.41-5.348-5.115"/><path fill="none" stroke="#fff" d="M14.043 21.246c-.814-1.422-2.562-2.237-3.679-3.128l8.758-4.933c-.02 1.48.566 3.088.875 4.518z" opacity=".247"/><rect width="13.015" height="3.46" x="-1.413" y="24.175" fill="url(#r)" fill-rule="evenodd" stroke="#690000" stroke-linecap="round" rx="1" ry="1" transform="rotate(-30)"/><path fill="#fff" fill-rule="evenodd" stroke="#8f5902" stroke-linecap="round" stroke-linejoin="round" d="M9.798 4.857a1.297 1.297 0 1 1-2.505-.672 1.297 1.297 0 1 1 2.505.672"/><path fill="#fff" fill-rule="evenodd" d="M27.735 40.555s1.506-.5 2.176-.942c-1.238-1.944-3.403-5.895-5.403-8.875 1.193 6.54 3.227 9.817 3.227 9.817m3.407-1.497 2.026-1.085c-1.945-1.856-7.469-10.116-7.469-10.116zm4.517-2.67 2.436-1.744c-3.182-1.326-11.587-9.88-11.587-9.88 2.383 3.012 6.768 8.612 9.15 11.624m3.495-2.47 1.692-1.41c-3.315-1.503-12.496-9.912-12.496-9.912s6.075 9.2 10.804 11.321m-14.777 7.655s1.197-.28 2.044-.456c-1.459-1.237-3.801-4.437-5.094-8.61.53 6.894 3.05 9.066 3.05 9.066m-3.005.397 1.248-.013c-2.298-2.52-3.138-5.366-4.431-9.406-.133 4.684 3.183 9.42 3.183 9.42" opacity=".317"/></svg>