<?xml version="1.0" encoding="UTF-8" standalone="no"?>
<!-- Created with Inkscape (http://www.inkscape.org/) -->

<svg
   width="512"
   height="512"
   viewBox="0 0 512 512"
   version="1.1"
   id="svg1"
   inkscape:version="1.4 (86a8ad7, 2024-10-11)"
   sodipodi:docname="red clock.svg"
   xmlns:inkscape="http://www.inkscape.org/namespaces/inkscape"
   xmlns:sodipodi="http://sodipodi.sourceforge.net/DTD/sodipodi-0.dtd"
   xmlns="http://www.w3.org/2000/svg"
   xmlns:svg="http://www.w3.org/2000/svg">
  <sodipodi:namedview
     id="namedview1"
     pagecolor="#ffffff"
     bordercolor="#000000"
     borderopacity="0.25"
     inkscape:showpageshadow="2"
     inkscape:pageopacity="0.0"
     inkscape:pagecheckerboard="0"
     inkscape:deskcolor="#d1d1d1"
     inkscape:document-units="px"
     inkscape:zoom="4.6017183"
     inkscape:cx="284.56761"
     inkscape:cy="109.19834"
     inkscape:window-width="1842"
     inkscape:window-height="1051"
     inkscape:window-x="2391"
     inkscape:window-y="-9"
     inkscape:window-maximized="1"
     inkscape:current-layer="g5" />
  <defs
     id="defs1">
    <inkscape:path-effect
       effect="skeletal"
       id="path-effect8"
       is_visible="true"
       lpeversion="1"
       pattern="M 3.243,61.4807 V 10.77241 C 3.243,6.60112 6.65797,3.243 10.89988,3.243 h 3.74024 c 4.24192,0 7.65689,3.35812 7.65689,7.52941 V 61.4807 c 0,4.17129 -3.41497,7.5294 -7.65689,7.5294 H 10.89988 C 6.65797,69.0101 3.243,65.65199 3.243,61.4807 Z"
       copytype="repeated"
       prop_scale="1"
       scale_y_rel="false"
       spacing="111.4"
       normal_offset="4.6"
       tang_offset="0"
       prop_units="false"
       vertical_pattern="false"
       hide_knot="false"
       fuse_tolerance="0" />
    <inkscape:path-effect
       effect="skeletal"
       id="path-effect6"
       is_visible="true"
       lpeversion="1"
       pattern="M 3.243,61.4807 V 10.77241 C 3.243,6.60112 6.65797,3.243 10.89988,3.243 h 3.74024 c 4.24192,0 7.65689,3.35812 7.65689,7.52941 V 61.4807 c 0,4.17129 -3.41497,7.5294 -7.65689,7.5294 H 10.89988 C 6.65797,69.0101 3.243,65.65199 3.243,61.4807 Z"
       copytype="repeated"
       prop_scale="1"
       scale_y_rel="false"
       spacing="111.4"
       normal_offset="4.6"
       tang_offset="0"
       prop_units="false"
       vertical_pattern="false"
       hide_knot="false"
       fuse_tolerance="0" />
    <inkscape:path-effect
       effect="skeletal"
       id="path-effect4"
       is_visible="true"
       lpeversion="1"
       pattern="M 3.243,61.4807 V 10.77241 C 3.243,6.60112 6.65797,3.243 10.89988,3.243 h 3.74024 c 4.24192,0 7.65689,3.35812 7.65689,7.52941 V 61.4807 c 0,4.17129 -3.41497,7.5294 -7.65689,7.5294 H 10.89988 C 6.65797,69.0101 3.243,65.65199 3.243,61.4807 Z"
       copytype="repeated"
       prop_scale="1"
       scale_y_rel="false"
       spacing="111.4"
       normal_offset="4.6"
       tang_offset="0"
       prop_units="false"
       vertical_pattern="false"
       hide_knot="false"
       fuse_tolerance="0" />
    <inkscape:path-effect
       effect="skeletal"
       id="path-effect2"
       is_visible="true"
       lpeversion="1"
       pattern="M 3.243,61.4807 V 10.77241 C 3.243,6.60112 6.65797,3.243 10.89988,3.243 h 3.74024 c 4.24192,0 7.65689,3.35812 7.65689,7.52941 V 61.4807 c 0,4.17129 -3.41497,7.5294 -7.65689,7.5294 H 10.89988 C 6.65797,69.0101 3.243,65.65199 3.243,61.4807 Z"
       copytype="repeated"
       prop_scale="1"
       scale_y_rel="false"
       spacing="111.4"
       normal_offset="4.6"
       tang_offset="0"
       prop_units="false"
       vertical_pattern="false"
       hide_knot="false"
       fuse_tolerance="0" />
    <inkscape:path-effect
       effect="skeletal"
       id="path-effect1"
       is_visible="true"
       lpeversion="1"
       pattern="M 0,0 H 1"
       copytype="repeated"
       prop_scale="1"
       scale_y_rel="false"
       spacing="0"
       normal_offset="0"
       tang_offset="0"
       prop_units="false"
       vertical_pattern="false"
       hide_knot="false"
       fuse_tolerance="0" />
    <inkscape:path-effect
       effect="skeletal"
       id="path-effect2-4"
       is_visible="true"
       lpeversion="1"
       pattern="M 3.243,61.4807 V 10.77241 C 3.243,6.60112 6.65797,3.243 10.89988,3.243 h 3.74024 c 4.24192,0 7.65689,3.35812 7.65689,7.52941 V 61.4807 c 0,4.17129 -3.41497,7.5294 -7.65689,7.5294 H 10.89988 C 6.65797,69.0101 3.243,65.65199 3.243,61.4807 Z"
       copytype="repeated"
       prop_scale="1"
       scale_y_rel="false"
       spacing="111.4"
       normal_offset="4.6"
       tang_offset="0"
       prop_units="false"
       vertical_pattern="false"
       hide_knot="false"
       fuse_tolerance="0" />
  </defs>
  <g
     inkscape:label="Layer 1"
     inkscape:groupmode="layer"
     id="layer1">
    <ellipse
       style="display:inline;fill:none;stroke:#dd1000;stroke-width:14.486;stroke-linecap:round;stroke-linejoin:round;stroke-dasharray:none;stroke-opacity:1"
       id="path1-8"
       cx="255.89922"
       cy="255.88182"
       rx="246.24414"
       ry="246.24319" />
    <g
       id="g5"
       style="display:inline">
      <path
         id="path8"
         style="display:inline;fill:none;stroke:#ffffff;stroke-width:12.35799922;stroke-linecap:round;stroke-linejoin:round;stroke-dasharray:none;stroke-opacity:1"
         sodipodi:type="inkscape:offset"
         inkscape:radius="6.1014161"
         inkscape:original="M 272.01172 -19.357422 C 267.25986 -19.70878 263.30664 -16.501396 263.17969 -12.34375 L 261.63672 38.199219 C 261.50977 42.356864 264.22256 45.727053 267.71289 45.90625 C 268.73874 45.95892 269.76429 46.02198 270.78906 46.09375 C 274.27574 46.337933 277.46642 43.347223 277.95117 39.240234 L 283.8418 -10.689453 C 284.32655 -14.796441 280.93418 -18.586032 276.19727 -19.013672 C 274.80504 -19.13936 273.40835 -19.254154 272.01172 -19.357422 z M 139.24023 9.4277344 C 138.17539 9.5413586 137.0988 9.8550083 136.0625 10.390625 C 134.84418 11.020319 133.62888 11.657535 132.41992 12.304688 C 128.30658 14.50655 126.72107 19.275982 128.79102 22.861328 L 153.95703 66.445312 C 156.02698 70.030659 160.19752 71.444272 163.35742 69.722656 C 164.28615 69.216653 165.21757 68.718427 166.15234 68.226562 C 169.3328 66.55305 170.48029 62.300636 168.68359 58.580078 L 146.8457 13.349609 C 145.49818 10.55919 142.43473 9.0868616 139.24023 9.4277344 z M 400.15039 27.050781 C 398.14367 27.353452 396.33715 28.420741 395.21289 30.162109 L 367.87891 72.501953 C 365.63038 75.984688 366.26734 80.369248 369.25 82.435547 C 370.12664 83.042856 371.00016 83.659472 371.86914 84.279297 C 374.82573 86.388182 379.16216 85.487815 381.65625 82.167969 L 411.97656 41.8125 C 414.47064 38.492654 413.48086 33.55933 409.66797 30.873047 C 408.54733 30.083519 407.42069 29.301037 406.28906 28.527344 C 404.36393 27.211143 402.15711 26.74811 400.15039 27.050781 z M 35.443359 100.61719 C 33.199645 100.87638 30.987505 102.14566 29.494141 104.30273 C 28.713846 105.42982 27.942084 106.56515 27.177734 107.70312 C 24.577123 111.57492 25.40392 116.54437 28.904297 118.76367 L 71.455078 145.74219 C 74.955455 147.96148 79.337795 147.28862 81.378906 144.29102 C 81.978813 143.40998 82.584734 142.53363 83.197266 141.66016 C 85.281339 138.68824 84.349135 134.35932 81.009766 131.89258 L 40.414062 101.90625 C 39.57922 101.28956 38.64463 100.88948 37.671875 100.69922 C 36.942309 100.55653 36.191264 100.53079 35.443359 100.61719 z M 493.15625 129.9668 C 492.17027 130.0367 491.19925 130.31826 490.29883 130.82812 L 446.51367 155.61914 C 442.91197 157.65856 441.46267 161.81629 443.15625 164.98828 C 443.65401 165.92056 444.14735 166.85476 444.63086 167.79297 C 446.27596 170.98515 450.51498 172.17055 454.25 170.40625 L 499.65625 148.95898 C 503.39128 147.19468 504.81056 142.36663 502.70312 138.20312 C 502.08371 136.97942 501.45728 135.76132 500.82031 134.54688 C 499.1949 131.44786 496.11418 129.75717 493.15625 129.9668 z M 250.48633 219.44727 C 247.90723 219.53687 245.37206 221.02665 243.76367 223.48047 C 243.45507 223.46317 243.16036 223.50433 242.89062 223.62305 L 163.3418 258.62891 C 161.38224 259.4912 161.37803 263.75541 163.33008 268.19141 C 165.2821 272.6274 168.42911 275.50487 170.38867 274.64258 L 249.9375 239.63672 C 250.50989 239.38485 250.91147 238.83798 251.15039 238.08594 L 405.10156 305.38867 C 409.00836 307.09656 413.71496 304.89578 415.65625 300.45508 C 417.59753 296.01437 416.01617 291.06336 412.10938 289.35547 L 253.50977 220.02344 C 252.53307 219.59646 251.50743 219.4118 250.48633 219.44727 z M -10.964844 230.51172 C -15.073333 230.06775 -18.832807 233.44329 -19.220703 238.24805 C -19.333309 239.64287 -19.435311 241.03839 -19.525391 242.4375 C -19.831865 247.19782 -16.584284 251.12408 -12.421875 251.20898 L 38.177734 252.24023 C 42.340144 252.32513 45.681352 249.57813 45.822266 246.08594 C 45.863686 245.05954 45.915937 244.03324 45.976562 243.00781 C 46.182839 239.51891 43.156602 236.35859 39.042969 235.91406 L -10.964844 230.51172 z M 473.80273 256 C 469.63144 256 466.3469 258.81727 466.2832 262.3125 C 466.2644 263.33979 466.23547 264.36799 466.19727 265.39453 C 466.06747 268.88722 469.16475 271.98618 473.29102 272.34961 L 523.45117 276.76562 C 527.57183 277.12858 531.27319 273.67388 531.57031 268.85156 C 531.65661 267.45174 531.73337 266.05037 531.79688 264.64648 C 532.01292 259.86992 528.68106 256 524.50977 256 L 473.80273 256 z M 62.259766 344.19531 C 61.312307 344.29839 60.350298 344.57207 59.423828 345.0293 L 14.373047 367.26367 C 10.667171 369.09255 9.3266416 373.9417 11.503906 378.06836 C 12.143828 379.28123 12.793901 380.49191 13.451172 381.69531 C 15.687458 385.78973 20.468324 387.33463 24.037109 385.23438 L 67.419922 359.70117 C 70.988706 357.60093 72.366624 353.41516 70.617188 350.26758 C 70.103008 349.34246 69.595854 348.41759 69.095703 347.48633 C 67.81942 345.10993 65.102145 343.88607 62.259766 344.19531 z M 437.06641 361.85547 C 435.28431 362.1494 433.69426 363.09205 432.69922 364.60547 C 432.11432 365.49509 431.52353 366.37748 430.92578 367.25977 C 428.89199 370.26167 429.89371 374.57296 433.27148 376.98438 L 474.33398 406.30078 C 477.71175 408.71219 482.6176 407.59869 485.20898 403.7207 C 485.97062 402.58091 486.72523 401.4356 487.4707 400.28516 C 490.00707 396.37093 489.09946 391.41411 485.56445 389.25391 L 442.58984 362.99414 C 440.82233 361.91404 438.8485 361.56154 437.06641 361.85547 z M 138.77734 428.85156 C 136.78716 429.11488 134.82126 430.24747 133.44922 432.13672 L 103.79688 472.9668 C 101.35769 476.32547 102.4306 481.242 106.28711 483.86523 C 107.42058 484.63623 108.55889 485.3974 109.70312 486.15234 C 113.59624 488.72094 118.56014 487.8557 120.75 484.33789 L 147.37109 441.57422 C 149.56095 438.05641 148.85217 433.68368 145.83984 431.66797 C 144.95448 431.07554 144.07322 430.47626 143.19531 429.87109 C 142.44855 429.35633 141.61709 429.02917 140.75391 428.88281 C 140.10652 428.77304 139.44074 428.76379 138.77734 428.85156 z M 354.39062 439.71094 C 353.5229 439.77944 352.67243 440.03035 351.88867 440.47461 C 350.96724 440.9969 350.04293 441.5131 349.11523 442.02148 C 345.95887 443.75117 344.87742 448.02386 346.73828 451.71484 L 369.35938 496.58398 C 371.22023 500.27496 376.08546 501.57707 380.19336 499.36523 C 381.40072 498.71514 382.60106 498.05599 383.79883 497.38867 C 387.87413 495.11818 389.37838 490.32349 387.24805 486.77148 L 361.35156 443.59375 C 359.75381 440.92975 356.99382 439.50543 354.39062 439.71094 z M 244.80664 466.11914 C 241.31573 465.95099 238.18729 469.01275 237.7832 473.13281 L 232.87109 523.21875 C 232.46752 527.33344 235.88165 531.06363 240.69531 531.40625 C 242.09266 531.50575 243.49105 531.59508 244.89258 531.67188 C 249.66113 531.93325 253.56102 528.64548 253.60352 524.47852 L 254.11914 473.82227 C 254.16164 469.65531 251.38054 466.34069 247.88672 466.23828 C 246.85984 466.20818 245.83265 466.16851 244.80664 466.11914 z "
         d="m 272.46094,-25.441406 c -7.72321,-0.571063 -15.13695,4.987934 -15.37891,12.912109 l -1.54297,50.542969 C 255.32812,44.92219 260.15961,51.628251 267.40039,52 c 0.98475,0.05056 1.97266,0.110336 2.96289,0.179687 7.20895,0.504866 12.83683,-5.364867 13.64649,-12.224609 l 5.89062,-49.9296874 c 0.92438,-7.8317256 -5.46243,-14.4208256 -13.1543,-15.1152346 -1.42483,-0.128631 -2.85524,-0.245833 -4.28515,-0.351562 z M 138.59375,3.3613281 c -1.81135,0.1932806 -3.62762,0.7284406 -5.33203,1.609375 -1.23958,0.6406824 -2.48101,1.2914723 -3.7207,1.9550781 -6.77023,3.6240868 -9.94917,12.2035198 -6.03321,18.9863278 l 25.16602,43.583985 c 3.49704,6.057209 11.23089,9.055998 17.60351,5.583984 0.90132,-0.491069 1.80653,-0.974152 2.7168,-1.453125 6.41459,-3.375265 8.21435,-11.423202 5.18359,-17.699219 L 152.33984,10.697266 C 149.78311,5.4028199 144.04065,2.7801109 138.59375,3.3613281 Z m 263.3457,17.5117189 c -0.90331,-0.03741 -1.8076,0.01005 -2.69922,0.144531 -3.56435,0.537606 -7.02881,2.5468 -9.15234,5.835938 a 6.1020263,6.1020263 0 0 0 -0.002,0 l -27.33399,42.339843 h 0.002 c -3.79902,5.884268 -2.94816,14.122221 3.02148,18.257813 0.84708,0.586833 1.69809,1.186712 2.55078,1.794922 5.92117,4.223468 13.99312,2.19761 18.20899,-3.414063 l 30.32031,-40.355469 c 4.70321,-6.260403 2.60787,-15.166171 -3.67383,-19.591796 -1.14299,-0.805278 -2.29292,-1.603972 -3.44922,-2.394532 -2.37609,-1.624524 -5.08302,-2.504969 -7.79297,-2.617187 z M 34.742187,94.556641 c -4.044605,0.467794 -7.803182,2.719415 -10.263671,6.273439 -0.800067,1.15565 -1.58827,2.31395 -2.365235,3.4707 -4.281736,6.37467 -3.088717,15.42301 3.523438,19.61524 L 68.1875,150.89453 c 5.916397,3.75108 14.145623,2.83487 18.234375,-3.16992 0.583561,-0.85703 1.174421,-1.70914 1.771484,-2.56055 4.174279,-5.95258 2.088294,-14.00842 -3.558593,-18.17968 L 44.039062,96.998047 C 42.468185,95.837654 40.675338,95.069176 38.84375,94.710937 37.476355,94.4435 36.091258,94.401211 34.744141,94.556641 Z M 492.72461,123.88086 c -1.85697,0.13165 -3.73267,0.67663 -5.43164,1.63867 l -43.78516,24.79102 c -6.085,3.44556 -9.15245,11.1489 -5.73437,17.55078 0.48905,0.91597 0.96875,1.82458 1.43359,2.72656 3.3185,6.43927 11.34702,8.31252 17.64844,5.33594 l 45.40625,-21.44727 c 7.08224,-3.3454 9.34901,-12.18524 5.88476,-19.02929 -0.63118,-1.24697 -1.27165,-2.49096 -1.92382,-3.73438 -2.6744,-5.09903 -7.93457,-8.22632 -13.49805,-7.83203 z m -242.44922,89.46875 c -3.87322,0.13456 -7.33325,1.94876 -9.9082,4.71875 l -79.48242,34.97656 c -2.18604,0.96195 -3.60612,2.85751 -4.2793,4.47656 -0.67318,1.61906 -0.83623,3.10088 -0.83789,4.54102 -0.003,2.88028 0.71154,5.70676 1.97851,8.58594 1.26698,2.87922 2.86817,5.31647 4.99414,7.25976 1.06299,0.97165 2.26556,1.85381 3.91407,2.45117 1.64851,0.59737 4.0054,0.82913 6.1914,-0.13281 l 79.47266,-34.97265 150.33984,65.72461 c 7.31739,3.19885 15.49316,-1.00089 18.58789,-8.08008 3.09509,-7.08006 0.62514,-15.93346 -6.69336,-19.13282 L 255.95312,214.43359 c -1.82155,-0.79632 -3.78069,-1.14988 -5.67773,-1.08398 z m -260.583984,11.0957 c -7.788018,-0.84158 -14.370237,5.58438 -14.99414,13.3125 -0.115092,1.42561 -0.218206,2.85289 -0.310547,4.28711 -0.497846,7.73282 5.134242,15.10188 13.066406,15.26367 l 50.599609,1.03125 c 6.911729,0.14098 13.572864,-4.76215 13.865235,-12.00781 0.03969,-0.98356 0.08978,-1.97266 0.148437,-2.96484 0.426602,-7.21539 -5.500323,-12.77748 -12.367187,-13.51953 z m 484.111324,25.45313 c -6.91853,0 -13.4869,5.04671 -13.61914,12.30273 -0.0181,0.98727 -0.0471,1.97716 -0.084,2.9668 -0.26855,7.22619 5.7761,12.65378 12.65625,13.25976 l 50.16016,4.41602 c 7.80969,0.6879 14.26674,-5.869 14.74414,-13.61719 0.088,-1.42766 0.16716,-2.86219 0.23242,-4.30469 0.3507,-7.75381 -5.43779,-15.02343 -13.38281,-15.02343 z M 61.599609,338.12891 c -1.660384,0.18064 -3.313839,0.65826 -4.876953,1.42968 l -45.050781,22.23438 c -7.0191591,3.46514 -9.1443351,12.33795 -5.5644531,19.12305 0.6537633,1.2391 1.3170655,2.47419 1.9882812,3.70312 3.6803529,6.73836 12.2864149,9.84472 19.0351559,5.87305 a 6.1020263,6.1020263 0 0 0 0.002,0 l 43.38086,-25.53321 c 6.031107,-3.54932 8.963707,-11.3119 5.4375,-17.65625 -0.502941,-0.90489 -0.997055,-1.80302 -1.480469,-2.70312 -2.571118,-4.78734 -7.892281,-7.01238 -12.871094,-6.4707 z m 374.474611,17.70703 c -3.27381,0.53996 -6.47735,2.38317 -8.47266,5.41797 -0.56623,0.86123 -1.14127,1.72008 -1.72656,2.58398 -4.07714,6.01792 -1.86088,14.03316 3.85156,18.11133 l 41.0625,29.3164 c 6.37444,4.55075 15.22415,2.23282 19.49219,-4.15429 0.77633,-1.16178 1.5482,-2.33133 2.31055,-3.50781 4.17594,-6.44449 2.83639,-15.4733 -3.84571,-19.55665 l -42.97461,-26.25976 c -2.98808,-1.82598 -6.42859,-2.49029 -9.69726,-1.95117 z m -298.09766,66.96679 c -3.72757,0.4932 -7.14574,2.55473 -9.46484,5.74805 l -29.652345,40.83008 c -4.602684,6.33772 -2.356701,15.20807 3.996095,19.5293 1.16009,0.7891 2.3231,1.56717 3.48828,2.33593 6.40881,4.2284 15.44715,2.96499 19.58594,-3.68359 l 26.62109,-42.76367 c 3.70083,-5.94504 2.71588,-14.16335 -3.31836,-18.20117 -0.86006,-0.5755 -1.71751,-1.15945 -2.57422,-1.75 -1.49459,-1.03027 -3.18076,-1.69154 -4.88476,-1.98047 -1.27146,-0.21559 -2.55201,-0.22916 -3.79688,-0.0645 z m 215.9336,10.82618 c -1.7212,0.13587 -3.45564,0.6451 -5.0293,1.53711 -0.89898,0.50956 -1.79818,1.0112 -2.69727,1.5039 -6.3548,3.48244 -8.03335,11.56134 -4.89257,17.79102 l 22.62109,44.86914 c 3.52573,6.99325 12.41526,9.04726 19.17383,5.4082 1.23688,-0.66599 2.46213,-1.3401 3.68164,-2.01953 6.70798,-3.73725 9.74051,-12.37048 5.71289,-19.08594 l -25.89649,-43.17773 c -2.69846,-4.49928 -7.52841,-7.23238 -12.67382,-6.82617 z m -108.81055,26.39648 c -7.22107,-0.34782 -12.71464,5.63932 -13.38867,12.51172 l -4.91211,50.08594 c -0.76485,7.79815 5.72476,14.31836 13.46289,14.86914 1.42694,0.1016 2.85864,0.19267 4.29687,0.27148 7.74197,0.42435 15.0655,-5.28211 15.14649,-13.22265 l 0.51562,-50.65625 c 0.0705,-6.91433 -4.90125,-13.5335 -12.15429,-13.7461 -0.98906,-0.029 -1.97934,-0.0658 -2.9668,-0.11328 z"
         transform="matrix(0.77286123,0,0,0.77285824,58.177107,58.182978)" />
      <path
         style="fill:none;stroke:#000000;stroke-width:9.963;stroke-linecap:round;stroke-linejoin:round;stroke-dasharray:none;stroke-opacity:1"
         id="path4"
         sodipodi:type="arc"
         sodipodi:cx="256"
         sodipodi:cy="256"
         sodipodi:rx="247.757"
         sodipodi:ry="247.757"
         d="m 473.80285,256 h 50.70829 c 4.17129,0 7.49991,3.86957 7.28386,8.64613 -0.0635,1.40389 -0.13842,2.80579 -0.22467,4.20561 -0.29712,4.82232 -3.99881,8.27692 -8.11947,7.91397 l -50.16107,-4.41813 c -4.12627,-0.36343 -7.2229,-3.46171 -7.0931,-6.9544 0.0382,-1.02654 0.0666,-2.0535 0.0854,-3.08079 0.0637,-3.49523 3.34952,-6.31239 7.52081,-6.31239 z m -31.21286,106.99457 42.97338,26.26052 c 3.53501,2.1602 4.442,7.11603 1.90563,11.03026 -0.74547,1.15044 -1.49907,2.29559 -2.26071,3.43538 -2.59138,3.87799 -7.49709,4.99029 -10.87486,2.57888 l -41.06181,-29.3143 c -3.37777,-2.41141 -4.38038,-6.7219 -2.34659,-9.7238 0.59775,-0.88229 1.18913,-1.76829 1.77403,-2.65791 1.99008,-3.02684 6.35592,-3.76924 9.89093,-1.60903 z m -81.23813,80.59776 25.89739,43.17997 c 2.13033,3.55201 0.62617,8.3464 -3.44913,10.61689 -1.19777,0.66732 -2.40038,1.32607 -3.60774,1.97616 -4.1079,2.21184 -8.9719,0.91129 -10.83275,-2.77969 l -22.62147,-44.8694 c -1.86086,-3.69098 -0.77994,-7.966 2.37642,-9.69569 0.9277,-0.50838 1.8523,-1.02376 2.77373,-1.54605 3.13506,-1.77704 7.33321,-0.43419 9.46355,3.11781 z m -107.23154,30.23048 -0.51705,50.65562 c -0.0425,4.16696 -3.94059,7.4549 -8.70914,7.19353 -1.40153,-0.0768 -2.80102,-0.165 -4.19837,-0.26446 -4.81366,-0.34262 -8.22833,-4.07401 -7.82476,-8.1887 l 4.91231,-50.08554 c 0.40409,-4.12006 3.53296,-7.18151 7.02387,-7.01336 1.02601,0.0494 2.0525,0.0892 3.07938,0.11933 3.49382,0.10241 6.27629,3.41662 6.23376,7.58358 z M 147.37014,441.5736 120.74911,484.33776 c -2.18986,3.51781 -7.15326,4.3843 -11.04638,1.8157 -1.14424,-0.75494 -2.28314,-1.51796 -3.41661,-2.28896 -3.85651,-2.62323 -4.92846,-7.53853 -2.48927,-10.8972 l 29.65194,-40.82974 c 2.43919,-3.35867 6.75936,-4.32629 9.74638,-2.26724 0.87791,0.60517 1.7596,1.20403 2.64496,1.79646 3.01233,2.01571 3.71987,6.38901 1.53001,9.90682 z M 67.419486,359.70184 24.035555,385.23348 c -3.568785,2.10025 -8.349841,0.55576 -10.586127,-3.53866 -0.657271,-1.2034 -1.305914,-2.41158 -1.945836,-3.62445 -2.1772649,-4.12666 -0.83618,-8.97933 2.869696,-10.80821 l 45.050494,-22.23285 c 3.705877,-1.82889 7.969678,-0.71315 9.671388,2.45538 0.500151,0.93126 1.007364,1.85949 1.521544,2.78461 1.749437,3.14758 0.371556,7.3323 -3.197228,9.43254 z M 38.177921,252.24141 -12.422412,251.20993 c -4.162409,-0.0849 -7.409687,-4.01103 -7.103213,-8.77135 0.09008,-1.39911 0.191464,-2.79613 0.30407,-4.19095 0.387896,-4.80476 4.148645,-8.17951 8.257134,-7.73554 l 50.007387,5.40388 c 4.113633,0.44453 7.139904,3.60364 6.933628,7.09254 -0.06063,1.02543 -0.111695,2.05138 -0.153111,3.07778 -0.140914,3.49219 -3.483152,6.23997 -7.645562,6.15512 z M 71.456735,145.74237 28.904401,118.76345 c -3.500377,-2.2193 -4.326381,-7.18992 -1.72577,-11.06171 0.76435,-1.13797 1.53672,-2.27055 2.317015,-3.39764 2.654869,-3.8348 7.579391,-4.866397 10.918759,-2.39965 l 40.595037,29.98696 c 3.339369,2.46674 4.271982,6.79625 2.187909,9.76817 -0.612532,0.87347 -1.218798,1.75077 -1.818705,2.63181 -2.041111,2.9976 -6.421534,3.67027 -9.921911,1.45098 z M 153.95535,66.445581 128.7921,22.860309 c -2.06995,-3.585346 -0.48515,-8.352718 3.62819,-10.55458 1.20896,-0.647152 2.42264,-1.285623 3.64096,-1.915317 4.1452,-2.1424655 8.98619,-0.7608524 10.78289,2.959706 l 21.84161,45.228969 c 1.7967,3.720558 0.64613,7.972785 -2.53433,9.646297 -0.93477,0.491864 -1.86657,0.990844 -2.7953,1.496847 -3.1599,1.721616 -7.33082,0.308696 -9.40077,-3.27665 z m 107.68125,-28.246356 1.54329,-50.54242 c 0.12695,-4.157646 4.08092,-7.364259 8.83278,-7.012901 1.39663,0.103268 2.7911,0.217793 4.18333,0.343481 4.73691,0.42764 8.13106,4.2178 7.64631,8.324788 l -5.89282,49.926608 c -0.48475,4.106989 -3.67375,7.098086 -7.16043,6.853903 -1.02477,-0.07177 -2.05013,-0.134033 -3.07598,-0.186701 -3.49033,-0.179197 -6.20343,-3.549113 -6.07648,-7.706758 z m 106.24117,34.301664 27.33417,-42.337877 c 2.24852,-3.482735 7.22602,-4.268251 11.07627,-1.63585 1.13163,0.773693 2.25782,1.555351 3.37846,2.344879 3.81289,2.686283 4.80412,7.619684 2.31004,10.93953 l -30.31936,40.357715 c -2.49409,3.319846 -6.83258,4.217462 -9.78917,2.108577 -0.86898,-0.619825 -1.74183,-1.233439 -2.61847,-1.840748 -2.98266,-2.066299 -3.62047,-6.453491 -1.37194,-9.936226 z m 78.63617,83.118741 43.78398,-24.79226 c 3.6017,-2.03942 8.35503,-0.41431 10.52225,3.71772 0.63697,1.21445 1.2652,2.43358 1.88461,3.65728 2.10744,4.16351 0.6853,8.99247 -3.04973,10.75677 l -45.40482,21.44775 c -3.73502,1.7643 -7.97532,0.57891 -9.62042,-2.61327 -0.48351,-0.93821 -0.97419,-1.87351 -1.47195,-2.80579 -1.69358,-3.17199 -0.24562,-7.32878 3.35608,-9.3682 z"
         transform="matrix(0.77286123,0,0,0.77285824,58.177107,58.182978)"
         inkscape:path-effect="#path-effect6" />
      <rect
         style="fill:none;stroke:#000000;stroke-width:7.586;stroke-linecap:round;stroke-linejoin:round;stroke-dasharray:none"
         id="rect4"
         width="145.67107"
         height="13.522209"
         x="318.30081"
         y="107.33716"
         rx="5.9482303"
         ry="7.656888"
         inkscape:transform-center-x="-63.445808"
         inkscape:transform-center-y="26.729623"
         transform="rotate(23.612929)" />
      <rect
         style="fill:none;stroke:#000000;stroke-width:7.58599;stroke-linecap:round;stroke-linejoin:round;stroke-dasharray:none"
         id="rect5"
         width="73.142853"
         height="13.522209"
         x="-135.01266"
         y="-324.00848"
         rx="2.9866638"
         ry="7.656888"
         transform="rotate(156.24854)"
         inkscape:transform-center-x="34.095367"
         inkscape:transform-center-y="15.586211" />
    </g>
  </g>
</svg>
