<?xml version="1.0" encoding="UTF-8" standalone="no"?>
<svg
   version="1.1"
   id="svg4"
   sodipodi:docname="BattleshipIconWhite.svg"
   inkscape:version="1.4 (86a8ad7, 2024-10-11)"
   xmlns:inkscape="http://www.inkscape.org/namespaces/inkscape"
   xmlns:sodipodi="http://sodipodi.sourceforge.net/DTD/sodipodi-0.dtd"
   xmlns="http://www.w3.org/2000/svg"
   xmlns:svg="http://www.w3.org/2000/svg">
  <defs
     id="defs4" />
  <sodipodi:namedview
     id="namedview4"
     pagecolor="#ffffff"
     bordercolor="#000000"
     borderopacity="0.25"
     inkscape:showpageshadow="2"
     inkscape:pageopacity="0.0"
     inkscape:pagecheckerboard="0"
     inkscape:deskcolor="#d1d1d1"
     inkscape:zoom="5.5533333"
     inkscape:cx="55.012005"
     inkscape:cy="24.219688"
     inkscape:window-width="1842"
     inkscape:window-height="1051"
     inkscape:window-x="2391"
     inkscape:window-y="-9"
     inkscape:window-maximized="1"
     inkscape:current-layer="svg4" />
  <path
     d="m 47.875001,26.00673 c -0.49121,0.062 -0.89424,0.536 -0.875,1.0302 v 1.0302 c -2.47779,0.1677 -4.34288,0.8536 -7,-0.031 v 3.996 c 2.65712,0.8848 4.52221,0.1989 7,0.031 v 2.9658 h -2 v 5.994 h 12 v -2.0604 c 0,-1.9427 -2.01271,-3.9336 -4.09375,-3.9336 h -3.90625 v -7.992 c 0.0226,-0.5776 -0.55092,-1.1028 -1.125,-1.0302 z m -12.78125,11.0202 c -2.08104,0 -4.09375,1.991 -4.09375,3.9336 v 2.06048 h -2 v 4.995 h 8 v -4.995 -5.99408 z m -23.07224,5.83428 c -0.0488,0.425 0.20924,0.867 0.60349,1.0339 l 4.5625,2.2789 c -0.4409,0.504 -0.75431,1.1371 -0.9375,1.842 h 6.75 v -2.997 c -1.24549,-0.011 -2.50235,0 -3.59375,0.031 l -5.875,-2.93438 c -0.85866,-0.2369 -1.37087,0.069 -1.50974,0.74568 z m 30.97849,0.1598 v 6.993 h -27 v 2.997 h 41 2.125 l 1.1875,-1.3425 c 0.334581,-0.3723 0.81362,-0.6116 1.3125,-0.6555 h 3.40625 c 0.0754,-0.9548 0.0856,-1.9919 -0.0625,-2.8722 l 4.46875,-2.2477 c 0.410701,-0.1915 0.65307,-0.6875 0.551681,-1.1288 -0.101389,-0.4413 -0.53598,-0.782 -0.989181,-0.7755 -1.703,0.6041 -3.38144,1.6053 -5.03125,2.435 -0.773669,-0.8346 -1.85083,-1.4048 -2.96875,-1.4048 h -4 v -1.998 z m 37.562498,3.0907 -5.906248,2.9657 c -0.83623,-0.1168 -1.68953,-0.062 -2.5625,-0.062 v 1.998 h 5.34375 c -0.19284,-0.293 -0.400279,-0.5665 -0.65625,-0.8117 l 4.656248,-2.3102 c 0.4107,-0.1915 0.65307,-0.6875 0.55168,-1.1288 -0.29635,-0.8059 -0.86733,-0.8923 -1.42668,-0.6511 z m -80.379568,2.3138 c -0.35758,0.6586 -0.0648,1.1335 0.44207,1.4636 l 4.65625,2.3102 c -0.25578,0.2452 -0.46795,0.5186 -0.65625,0.8117 h 5.375 v -1.998 c -0.84395,-0.026 -1.76714,-0.01 -2.5625,0.062 l -5.90625,-2.9657 c -0.60205,-0.2213 -1.02929,-0.1474 -1.34832,0.3163 z m 61.62957,4.5855 -1.75,1.998 H 10e-7 c 0,3.996 3,8.991 5,8.991 h 76.999998 l 8,-10.989 z"
     id="path1" />
  <path
     d="M 3.964384,63.476714 C 2.270996,62.25003 0.570212,58.897973 0.240363,56.137079 L 0.124894,55.170584 h 30.019717 30.019716 l 0.846727,-0.999502 0.846727,-0.999502 14.008664,-0.0028 14.008661,-0.0028 -0.44821,0.608534 -3.91238,5.369416 -3.46416,4.760882 H 43.302871 4.555386 Z m 1.095815,-10.78529 c 0.17123,-0.182266 0.311327,-0.375185 0.311327,-0.42871 0,-0.05353 -1.047036,-0.620035 -2.326747,-1.258913 L 0.46746,49.620514 c -0.542087,-0.479603 -0.173053,-1.465967 0.54847,-1.465967 0.19197,0 1.700957,0.676547 3.353305,1.503437 l 3.00427,1.503436 h 1.289962 1.289961 v 0.930699 0.930699 H 7.351149 4.748871 Z m 11.491459,-5.068917 c 0.08131,-0.213871 0.289125,-0.642753 0.461805,-0.953071 0.233262,-0.41919 0.267045,-0.580237 0.131433,-0.62655 -0.100392,-0.03428 -1.198966,-0.566295 -2.441276,-1.182245 -1.780636,-0.882858 -2.296958,-1.203778 -2.439274,-1.516129 -0.156194,-0.342807 -0.143671,-0.445819 0.09289,-0.764168 0.150383,-0.202373 0.437562,-0.387694 0.638178,-0.411825 0.23926,-0.02878 1.403932,0.476165 3.385168,1.467641 l 3.020413,1.511515 h 1.791107 1.791106 v 1.431844 1.431844 H 19.69351 16.403813 Z m -0.4413,3.968467 v -1.431845 h 13.530928 13.530928 v -3.508018 -3.508018 h 6.944444 6.944445 v 1.002291 1.002291 h 2.265443 c 2.566892,0 3.232208,0.148442 4.125235,0.920402 l 0.54747,0.473251 2.41565,-1.197972 2.737257,-1.197972 c 0.688286,0 1.065636,1.011253 0.54497,1.460458 -0.137815,0.1189 -1.25168,0.738048 -2.475257,1.375884 l -2.224682,1.159703 0.05734,1.427574 0.05734,1.427574 -2.100273,0.04663 -2.100274,0.04662 -0.938055,0.966495 -0.938056,0.966495 H 37.572784 16.110358 Z M 29.14014,45.577228 v -2.434135 h 1.002291 1.002291 l 0.0031,-1.396048 c 0.0036,-1.605199 0.211653,-2.216094 1.083205,-3.180798 0.884174,-0.978675 1.745706,-1.336946 3.388163,-1.40898 l 1.396049,-0.06123 v 5.457662 5.457661 h -3.937572 -3.937572 z m 16.036656,-7.517182 v -2.935281 h 1.00229 1.002291 V 33.53836 31.951954 l -0.393757,0.07534 c -2.099692,0.401766 -5.334423,0.458101 -6.228522,0.108472 L 40.165341,31.981792 V 30.10015 28.218509 l 0.322165,0.100046 c 0.662429,0.205712 3.382745,0.230183 4.975658,0.04476 l 1.646621,-0.191676 0.0744,-0.832568 c 0.104937,-1.174253 0.698918,-1.568355 1.448967,-0.96138 l 0.338028,0.273548 0.04186,4.227408 0.04186,4.227408 2.392272,0.04515 c 2.719781,0.05133 3.233067,0.203712 4.308416,1.279062 0.87953,0.879531 1.171787,1.61851 1.266244,3.201748 l 0.08134,1.363308 h -5.963191 -5.96319 z m 27.061855,12.027491 v -0.930699 h 1.289961 1.289962 l 3.00427,-1.503436 3.355412,-1.503437 c 0.66948,0 1.04983,1.020533 0.54636,1.465967 -0.13781,0.12193 -1.29761,0.744409 -2.57732,1.383287 l -2.326743,1.286406 c 0,0.06864 0.09665,0.205021 0.214776,0.303058 0.118126,0.09804 0.214777,0.234792 0.214777,0.303901 0,0.06911 -1.127577,0.125652 -2.505727,0.125652 h -2.505728 z"
     fill="#ffffff"
     id="path2" />
</svg>
