<svg xmlns="http://www.w3.org/2000/svg" width="96" height="55" viewBox="0 0 96 55"><g fill="none" stroke="#00c8ff" stroke-width="1" opacity="0.5"><path d="M-16.00,-27.71L-32.00,0.00L-64.00,0.00L-80.00,-27.71L-64.00,-55.43L-32.00,-55.43Z"/><path d="M-16.00,27.71L-32.00,55.43L-64.00,55.43L-80.00,27.71L-64.00,0.00L-32.00,0.00Z"/><path d="M-16.00,83.14L-32.00,110.85L-64.00,110.85L-80.00,83.14L-64.00,55.43L-32.00,55.43Z"/><path d="M-16.00,138.56L-32.00,166.28L-64.00,166.28L-80.00,138.56L-64.00,110.85L-32.00,110.85Z"/><path d="M32.00,-55.43L16.00,-27.71L-16.00,-27.71L-32.00,-55.43L-16.00,-83.14L16.00,-83.14Z"/><path d="M32.00,0.00L16.00,27.71L-16.00,27.71L-32.00,0.00L-16.00,-27.71L16.00,-27.71Z"/><path d="M32.00,55.43L16.00,83.14L-16.00,83.14L-32.00,55.43L-16.00,27.71L16.00,27.71Z"/><path d="M32.00,110.85L16.00,138.56L-16.00,138.56L-32.00,110.85L-16.00,83.14L16.00,83.14Z"/><path d="M80.00,-27.71L64.00,0.00L32.00,0.00L16.00,-27.71L32.00,-55.43L64.00,-55.43Z"/><path d="M80.00,27.71L64.00,55.43L32.00,55.43L16.00,27.71L32.00,0.00L64.00,0.00Z"/><path d="M80.00,83.14L64.00,110.85L32.00,110.85L16.00,83.14L32.00,55.43L64.00,55.43Z"/><path d="M80.00,138.56L64.00,166.28L32.00,166.28L16.00,138.56L32.00,110.85L64.00,110.85Z"/><path d="M128.00,-55.43L112.00,-27.71L80.00,-27.71L64.00,-55.43L80.00,-83.14L112.00,-83.14Z"/><path d="M128.00,0.00L112.00,27.71L80.00,27.71L64.00,0.00L80.00,-27.71L112.00,-27.71Z"/><path d="M128.00,55.43L112.00,83.14L80.00,83.14L64.00,55.43L80.00,27.71L112.00,27.71Z"/><path d="M128.00,110.85L112.00,138.56L80.00,138.56L64.00,110.85L80.00,83.14L112.00,83.14Z"/><path d="M176.00,-27.71L160.00,0.00L128.00,0.00L112.00,-27.71L128.00,-55.43L160.00,-55.43Z"/><path d="M176.00,27.71L160.00,55.43L128.00,55.43L112.00,27.71L128.00,0.00L160.00,0.00Z"/><path d="M176.00,83.14L160.00,110.85L128.00,110.85L112.00,83.14L128.00,55.43L160.00,55.43Z"/><path d="M176.00,138.56L160.00,166.28L128.00,166.28L112.00,138.56L128.00,110.85L160.00,110.85Z"/></g></svg>