<?xml version="1.0" encoding="UTF-8"?>
<svg id="Layer_1" xmlns="http://www.w3.org/2000/svg" version="1.1" viewBox="0 0 18 12">
  <!-- Generator: Adobe Illustrator 29.7.1, SVG Export Plug-In . SVG Version: 2.1.1 Build 8)  -->
  <defs>
    <style>
      .st0 {
        fill: #B3B3B3;
      }
    </style>
  </defs>
  <path class="st0" d="M16.58,0H1.42C.64,0,0,.67,0,1.5v9c0,.83.63,1.5,1.42,1.5h15.16c.78,0,1.42-.67,1.42-1.5V1.5C18,.67,17.37,0,16.58,0ZM8.87,10.06c-.56,0-1.02-.49-1.02-1.1s.46-1.1,1.02-1.1,1.02.49,1.02,1.1-.46,1.1-1.02,1.1ZM9.74,6.93v.1c0,.21-.15.38-.35.38h-1.06c-.19,0-.35-.17-.35-.38v-.15c0-.97.68-1.36,1.2-1.68.45-.26.71-.46.71-.81,0-.47-.56-.79-1-.79-.57,0-.85.29-1.21.78-.13.17-.33.19-.49.07l-.63-.51c-.15-.13-.18-.35-.07-.51.6-.92,1.35-1.45,2.52-1.45h-.01c1.24-.01,2.56,1.03,2.56,2.42,0,1.84-1.82,1.86-1.82,2.55Z"/>
</svg>